# Blender v2.67 (sub 0) OBJ File: ''
# www.blender.org
o wall
v 1.034700 -1.970300 0.093200
v 1.310300 -1.970300 0.093200
v 1.310300 1.970300 0.093200
v 1.034700 1.970300 0.093200
v 1.310300 1.970300 -0.093200
v 1.034700 1.970300 -0.093200
v 1.310300 -1.970300 -0.093200
v 1.034700 -1.970300 -0.093200
v 4.035700 -1.970300 0.093200
v 4.311300 -1.970300 0.093200
v 4.311300 1.970300 0.093200
v 4.035700 1.970300 0.093200
v 4.311300 1.970300 -0.093200
v 4.035700 1.970300 -0.093200
v 4.311300 -1.970300 -0.093200
v 4.035700 -1.970300 -0.093200
v 2.529100 -1.970300 0.093200
v 2.804700 -1.970300 0.093200
v 2.804700 1.970300 0.093200
v 2.529100 1.970300 0.093200
v 2.804700 1.970300 -0.093200
v 2.529100 1.970300 -0.093200
v 2.804700 -1.970300 -0.093200
v 2.529100 -1.970300 -0.093200
v 5.538000 -1.970300 0.093200
v 5.813600 -1.970300 0.093200
v 5.813600 1.970300 0.093200
v 5.538000 1.970300 0.093200
v 5.813600 1.970300 -0.093200
v 5.538000 1.970300 -0.093200
v 5.813600 -1.970300 -0.093200
v 5.538000 -1.970300 -0.093200
v -0.317300 -1.970300 0.093200
v -0.041700 -1.970300 0.093200
v -0.041700 1.970300 0.093200
v -0.317300 1.970300 0.093200
v -0.041700 1.970300 -0.093200
v -0.317300 1.970300 -0.093200
v -0.041700 -1.970300 -0.093200
v -0.317300 -1.970300 -0.093200
v -1.819800 -1.970300 0.093200
v -1.544200 -1.970300 0.093200
v -1.544200 1.970300 0.093200
v -1.819800 1.970300 0.093200
v -1.544200 1.970300 -0.093200
v -1.819800 1.970300 -0.093200
v -1.544200 -1.970300 -0.093200
v -1.819800 -1.970300 -0.093200
v -3.319300 -1.970300 0.093200
v -3.043700 -1.970300 0.093200
v -3.043700 1.970300 0.093200
v -3.319300 1.970300 0.093200
v -3.043700 1.970300 -0.093200
v -3.319300 1.970300 -0.093200
v -3.043700 -1.970300 -0.093200
v -3.319300 -1.970300 -0.093200
v -4.804900 -1.970300 0.093200
v -4.529300 -1.970300 0.093200
v -4.529300 1.970300 0.093200
v -4.804900 1.970300 0.093200
v -4.529300 1.970300 -0.093200
v -4.804900 1.970300 -0.093200
v -4.529300 -1.970300 -0.093200
v -4.804900 -1.970300 -0.093200
v 5.622600 0.867900 0.020200
v 5.622600 1.384100 0.089400
v -4.598100 1.384100 0.089400
v -4.598100 0.867900 0.020200
v -4.598100 0.866200 0.020200
v 5.622600 0.866200 0.020200
v -4.598100 1.807500 0.089400
v 5.622600 1.807500 0.089400
v 5.622600 1.807500 -0.020200
v -4.598100 1.807500 -0.020200
v -4.598100 -1.679300 -0.020200
v 5.622600 -1.679300 -0.020200
v 5.622600 -1.679300 0.089400
v -4.598100 -1.679300 0.089400
v 5.622600 0.867900 -0.020200
v 5.622600 1.384100 -0.020200
v -4.598100 0.867900 -0.020200
v -4.598100 1.384100 -0.020200
v -4.598100 0.866200 -0.020200
v -4.598100 0.473300 -0.020200
v -4.598100 0.008900 -0.020200
v -4.598100 -0.544700 -0.020200
v -4.598100 -0.973400 -0.020200
v -4.598100 -1.402000 -0.020200
v 5.622600 0.866200 -0.020200
v 5.622600 0.473300 -0.020200
v 5.622600 0.008900 -0.020200
v 5.622600 -0.544700 -0.020200
v 5.622600 -0.973400 -0.020200
v 5.622600 -1.402000 -0.020200
v 5.622600 0.473300 0.020200
v 5.622600 0.008900 0.020200
v 5.622600 -0.544700 0.020200
v -4.598100 0.473300 0.020200
v -4.598100 0.008900 0.020200
v -4.598100 -0.544700 0.020200
v -4.598100 -0.973400 0.020200
v 5.622600 -0.973400 0.020200
v -4.598100 -1.402000 0.089400
v 5.622600 -1.402000 0.089400
vt 0.728200 0.002000
vt 0.747600 0.002000
vt 0.747600 0.278200
vt 0.728200 0.278200
vt 0.202800 0.741100
vt 0.202800 0.721800
vt 0.215900 0.721800
vt 0.215900 0.741100
vt 0.530100 0.002000
vt 0.549500 0.002000
vt 0.549500 0.278200
vt 0.530100 0.278200
vt 0.294200 0.741100
vt 0.294200 0.721800
vt 0.307200 0.721800
vt 0.307200 0.741100
vt 0.753000 0.002000
vt 0.766100 0.002000
vt 0.766100 0.278200
vt 0.753000 0.278200
vt 0.772800 0.002000
vt 0.785900 0.002000
vt 0.785900 0.278200
vt 0.772800 0.278200
vt 0.792600 0.002000
vt 0.811900 0.002000
vt 0.811900 0.278200
vt 0.792600 0.278200
vt 0.184600 0.741100
vt 0.184600 0.721800
vt 0.197700 0.721800
vt 0.197700 0.741100
vt 0.554900 0.002000
vt 0.574200 0.002000
vt 0.574200 0.278200
vt 0.554900 0.278200
vt 0.275900 0.741100
vt 0.275900 0.721800
vt 0.289000 0.721800
vt 0.289000 0.741100
vt 0.817400 0.002000
vt 0.830500 0.002000
vt 0.830500 0.278200
vt 0.817400 0.278200
vt 0.832300 0.281600
vt 0.845400 0.281600
vt 0.845400 0.557800
vt 0.832300 0.557800
vt 0.807800 0.281600
vt 0.827100 0.281600
vt 0.827100 0.557800
vt 0.807800 0.557800
vt 0.422000 0.741100
vt 0.422000 0.721800
vt 0.435100 0.721800
vt 0.435100 0.741100
vt 0.579700 0.002000
vt 0.599000 0.002000
vt 0.599000 0.278200
vt 0.579700 0.278200
vt 0.403800 0.741100
vt 0.403800 0.721800
vt 0.416800 0.721800
vt 0.416800 0.741100
vt 0.789500 0.281600
vt 0.802600 0.281600
vt 0.802600 0.557800
vt 0.789500 0.557800
vt 0.771300 0.281600
vt 0.784300 0.281600
vt 0.784300 0.557800
vt 0.771300 0.557800
vt 0.746700 0.281600
vt 0.766100 0.281600
vt 0.766100 0.557800
vt 0.746700 0.557800
vt 0.385500 0.741100
vt 0.385500 0.721800
vt 0.398600 0.721800
vt 0.398600 0.741100
vt 0.604400 0.002000
vt 0.623700 0.002000
vt 0.623700 0.278200
vt 0.604400 0.278200
vt 0.367200 0.741100
vt 0.367200 0.721800
vt 0.380300 0.721800
vt 0.380300 0.741100
vt 0.728500 0.281600
vt 0.741600 0.281600
vt 0.741600 0.557800
vt 0.728500 0.557800
vt 0.710200 0.281600
vt 0.723300 0.281600
vt 0.723300 0.557800
vt 0.710200 0.557800
vt 0.685700 0.281600
vt 0.705000 0.281600
vt 0.705000 0.557800
vt 0.685700 0.557800
vt 0.349000 0.741100
vt 0.349000 0.721800
vt 0.362000 0.721800
vt 0.362000 0.741100
vt 0.629200 0.002000
vt 0.648500 0.002000
vt 0.648500 0.278200
vt 0.629200 0.278200
vt 0.257600 0.741100
vt 0.257600 0.721800
vt 0.270700 0.721800
vt 0.270700 0.741100
vt 0.667400 0.281600
vt 0.680500 0.281600
vt 0.680500 0.557800
vt 0.667400 0.557800
vt 0.649200 0.281600
vt 0.662200 0.281600
vt 0.662200 0.557800
vt 0.649200 0.557800
vt 0.624700 0.281600
vt 0.644000 0.281600
vt 0.644000 0.557800
vt 0.624700 0.557800
vt 0.166300 0.741100
vt 0.166300 0.721800
vt 0.179400 0.721800
vt 0.179400 0.741100
vt 0.654000 0.002000
vt 0.673300 0.002000
vt 0.673300 0.278200
vt 0.654000 0.278200
vt 0.239400 0.741100
vt 0.239400 0.721800
vt 0.252400 0.721800
vt 0.252400 0.741100
vt 0.606400 0.281600
vt 0.619500 0.281600
vt 0.619500 0.557800
vt 0.606400 0.557800
vt 0.588100 0.281600
vt 0.601200 0.281600
vt 0.601200 0.557800
vt 0.588100 0.557800
vt 0.563600 0.281600
vt 0.582900 0.281600
vt 0.582900 0.557800
vt 0.563600 0.557800
vt 0.148100 0.741100
vt 0.148100 0.721800
vt 0.161100 0.721800
vt 0.161100 0.741100
vt 0.678700 0.002000
vt 0.698000 0.002000
vt 0.698000 0.278200
vt 0.678700 0.278200
vt 0.221100 0.741100
vt 0.221100 0.721800
vt 0.234200 0.721800
vt 0.234200 0.741100
vt 0.545400 0.281600
vt 0.558400 0.281600
vt 0.558400 0.557800
vt 0.545400 0.557800
vt 0.527100 0.721800
vt 0.540200 0.721800
vt 0.540200 0.998000
vt 0.527100 0.998000
vt 0.502600 0.721800
vt 0.521900 0.721800
vt 0.521900 0.998000
vt 0.502600 0.998000
vt 0.330700 0.741100
vt 0.330700 0.721800
vt 0.343800 0.721800
vt 0.343800 0.741100
vt 0.703500 0.002000
vt 0.722800 0.002000
vt 0.722800 0.278200
vt 0.703500 0.278200
vt 0.312400 0.741100
vt 0.312400 0.721800
vt 0.325500 0.721800
vt 0.325500 0.741100
vt 0.484300 0.721800
vt 0.497400 0.721800
vt 0.497400 0.998000
vt 0.484300 0.998000
vt 0.466000 0.721800
vt 0.479100 0.721800
vt 0.479100 0.998000
vt 0.466000 0.998000
vt 0.431300 0.002000
vt 0.467500 0.002000
vt 0.467500 0.718400
vt 0.431300 0.718400
vt 0.431200 0.718400
vt 0.431200 0.002000
vt 0.516900 0.718400
vt 0.516900 0.002000
vt 0.524600 0.002000
vt 0.524600 0.718400
vt 0.503700 0.718400
vt 0.503700 0.002000
vt 0.511400 0.002000
vt 0.511400 0.718400
vt 0.458000 0.900300
vt 0.460800 0.900300
vt 0.460800 0.936500
vt 0.453200 0.936500
vt 0.440300 0.900300
vt 0.443100 0.900300
vt 0.448000 0.936500
vt 0.440300 0.936500
vt 0.031400 0.718400
vt 0.001700 0.718400
vt 0.001700 0.002000
vt 0.067500 0.718400
vt 0.067700 0.718400
vt 0.095200 0.718400
vt 0.127800 0.718400
vt 0.166600 0.718400
vt 0.196600 0.718400
vt 0.226700 0.718400
vt 0.031400 0.002000
vt 0.067500 0.002000
vt 0.067700 0.002000
vt 0.095200 0.002000
vt 0.127800 0.002000
vt 0.166600 0.002000
vt 0.196600 0.002000
vt 0.226700 0.002000
vt 0.246100 0.002000
vt 0.246100 0.718400
vt 0.458000 0.900200
vt 0.460800 0.900200
vt 0.440300 0.900200
vt 0.443100 0.900200
vt 0.497200 0.002000
vt 0.497200 0.718400
vt 0.460800 0.966200
vt 0.453200 0.966200
vt 0.448000 0.966200
vt 0.440300 0.966200
vt 0.403700 0.002000
vt 0.371100 0.002000
vt 0.332300 0.002000
vt 0.403700 0.718400
vt 0.371100 0.718400
vt 0.332300 0.718400
vt 0.302300 0.718400
vt 0.302300 0.002000
vt 0.458000 0.872700
vt 0.460800 0.872700
vt 0.440300 0.872700
vt 0.443100 0.872700
vt 0.458000 0.840100
vt 0.460800 0.840100
vt 0.440300 0.840100
vt 0.443100 0.840100
vt 0.458000 0.801300
vt 0.460800 0.801300
vt 0.440300 0.801300
vt 0.443100 0.801300
vt 0.458000 0.771300
vt 0.460800 0.771300
vt 0.440300 0.771300
vt 0.443100 0.771300
vt 0.272200 0.718400
vt 0.272200 0.002000
vt 0.453200 0.741200
vt 0.460800 0.741200
vt 0.440300 0.741200
vt 0.448000 0.741200
vt 0.252800 0.718400
vt 0.252800 0.002000
vt 0.453200 0.721800
vt 0.460800 0.721800
vt 0.440300 0.721800
vt 0.448000 0.721800
vn -0.577349 -0.577349 0.577349
vn 0.577349 -0.577349 0.577349
vn 0.577349 0.577349 0.577349
vn -0.577349 0.577349 0.577349
vn 0.577349 0.577349 -0.577349
vn -0.577349 0.577349 -0.577349
vn 0.577349 -0.577349 -0.577349
vn -0.577349 -0.577349 -0.577349
vn 0.722404 -0.046022 0.689901
vn 0.692404 -0.048036 0.719871
vn -0.692404 -0.048036 0.719871
vn -0.722404 -0.046022 0.689932
vn -0.707114 0.000000 0.707083
vn 0.707083 0.000000 0.707083
vn 0.577349 0.577349 -0.577288
vn 0.707083 0.000000 -0.707083
vn -0.707083 0.000000 -0.707083
vn -0.707114 0.000000 -0.707083
vn -0.707083 0.000000 0.707083
vn -0.725547 0.054994 0.685934
vn 0.725547 0.054994 0.685934
vn -0.689535 0.057894 0.721915
vn 0.689535 0.057894 0.721915
s 1
f 1/1/1 2/2/2 3/3/3
f 4/4/4 1/1/1 3/3/3
f 4/5/4 3/6/3 5/7/5
f 5/7/5 6/8/6 4/5/4
f 6/9/6 5/10/5 7/11/7
f 7/11/7 8/12/8 6/9/6
f 8/13/8 7/14/7 2/15/2
f 2/15/2 1/16/1 8/13/8
f 2/17/2 7/18/7 5/19/5
f 5/19/5 3/20/3 2/17/2
f 8/21/8 1/22/1 4/23/4
f 4/23/4 6/24/6 8/21/8
f 9/25/1 10/26/2 11/27/3
f 11/27/3 12/28/4 9/25/1
f 12/29/4 11/30/3 13/31/5
f 13/31/5 14/32/6 12/29/4
f 14/33/6 13/34/5 15/35/7
f 15/35/7 16/36/8 14/33/6
f 16/37/8 15/38/7 10/39/2
f 10/39/2 9/40/1 16/37/8
f 10/41/2 15/42/7 13/43/5
f 13/43/5 11/44/3 10/41/2
f 16/45/8 9/46/1 12/47/4
f 12/47/4 14/48/6 16/45/8
f 17/49/1 18/50/2 19/51/3
f 19/51/3 20/52/4 17/49/1
f 20/53/4 19/54/3 21/55/5
f 21/55/5 22/56/6 20/53/4
f 22/57/6 21/58/5 23/59/7
f 23/59/7 24/60/8 22/57/6
f 24/61/8 23/62/7 18/63/2
f 18/63/2 17/64/1 24/61/8
f 18/65/2 23/66/7 21/67/5
f 21/67/5 19/68/3 18/65/2
f 24/69/8 17/70/1 20/71/4
f 20/71/4 22/72/6 24/69/8
f 25/73/1 26/74/2 27/75/3
f 27/75/3 28/76/4 25/73/1
f 28/77/4 27/78/3 29/79/5
f 29/79/5 30/80/6 28/77/4
f 30/81/6 29/82/5 31/83/7
f 31/83/7 32/84/8 30/81/6
f 32/85/8 31/86/7 26/87/2
f 26/87/2 25/88/1 32/85/8
f 26/89/2 31/90/7 29/91/5
f 29/91/5 27/92/3 26/89/2
f 32/93/8 25/94/1 28/95/4
f 28/95/4 30/96/6 32/93/8
f 33/97/1 34/98/2 35/99/3
f 35/99/3 36/100/4 33/97/1
f 36/101/4 35/102/3 37/103/5
f 37/103/5 38/104/6 36/101/4
f 38/105/6 37/106/5 39/107/7
f 39/107/7 40/108/8 38/105/6
f 40/109/8 39/110/7 34/111/2
f 34/111/2 33/112/1 40/109/8
f 34/113/2 39/114/7 37/115/5
f 37/115/5 35/116/3 34/113/2
f 40/117/8 33/118/1 36/119/4
f 36/119/4 38/120/6 40/117/8
f 41/121/1 42/122/2 43/123/3
f 43/123/3 44/124/4 41/121/1
f 44/125/4 43/126/3 45/127/5
f 45/127/5 46/128/6 44/125/4
f 46/129/6 45/130/5 47/131/7
f 47/131/7 48/132/8 46/129/6
f 48/133/8 47/134/7 42/135/2
f 42/135/2 41/136/1 48/133/8
f 42/137/2 47/138/7 45/139/5
f 45/139/5 43/140/3 42/137/2
f 48/141/8 41/142/1 44/143/4
f 44/143/4 46/144/6 48/141/8
f 49/145/1 50/146/2 51/147/3
f 51/147/3 52/148/4 49/145/1
f 52/149/4 51/150/3 53/151/5
f 53/151/5 54/152/6 52/149/4
f 54/153/6 53/154/5 55/155/7
f 55/155/7 56/156/8 54/153/6
f 56/157/8 55/158/7 50/159/2
f 50/159/2 49/160/1 56/157/8
f 50/161/2 55/162/7 53/163/5
f 53/163/5 51/164/3 50/161/2
f 56/165/8 49/166/1 52/167/4
f 52/167/4 54/168/6 56/165/8
f 57/169/1 58/170/2 59/171/3
f 59/171/3 60/172/4 57/169/1
f 60/173/4 59/174/3 61/175/5
f 61/175/5 62/176/6 60/173/4
f 62/177/6 61/178/5 63/179/7
f 63/179/7 64/180/8 62/177/6
f 64/181/8 63/182/7 58/183/2
f 58/183/2 57/184/1 64/181/8
f 58/185/2 63/186/7 61/187/5
f 61/187/5 59/188/3 58/185/2
f 64/189/8 57/190/1 60/191/4
f 60/191/4 62/192/6 64/189/8
f 65/193/9 66/194/10 67/195/11
f 65/193/9 67/195/11 68/196/12
f 65/193/9 68/196/12 69/197/13
f 65/193/9 69/197/13 70/198/14
f 71/199/4 72/200/3 73/201/15
f 73/201/15 74/202/6 71/199/4
f 75/203/8 76/204/7 77/205/2
f 77/205/2 78/206/1 75/203/8
f 65/207/9 79/208/16 80/209/16
f 80/209/16 66/210/10 65/207/9
f 81/211/17 68/212/12 67/213/11
f 67/213/11 82/214/17 81/211/17
f 82/215/17 74/216/6 73/217/15
f 81/218/17 82/215/17 73/217/15
f 83/219/17 81/218/17 73/217/15
f 84/220/17 83/219/17 73/217/15
f 85/221/17 84/220/17 73/217/15
f 86/222/17 85/221/17 73/217/15
f 87/223/17 86/222/17 73/217/15
f 88/224/18 87/223/17 73/217/15
f 88/224/18 73/217/15 80/225/16
f 88/224/18 80/225/16 79/226/16
f 88/224/18 79/226/16 89/227/16
f 88/224/18 89/227/16 90/228/16
f 88/224/18 90/228/16 91/229/16
f 88/224/18 91/229/16 92/230/16
f 88/224/18 92/230/16 93/231/16
f 88/224/18 93/231/16 94/232/16
f 88/224/18 94/232/16 76/233/7
f 88/224/18 76/233/7 75/234/8
f 79/208/16 65/207/9 70/235/14
f 70/235/14 89/236/16 79/208/16
f 68/212/12 81/211/17 83/237/17
f 83/237/17 69/238/13 68/212/12
f 67/195/11 66/194/10 72/239/3
f 72/239/3 71/240/4 67/195/11
f 66/210/10 80/209/16 73/241/15
f 73/241/15 72/242/3 66/210/10
f 82/214/17 67/213/11 71/243/4
f 71/243/4 74/244/6 82/214/17
f 95/245/14 70/198/14 69/197/13
f 96/246/14 95/245/14 69/197/13
f 97/247/14 96/246/14 69/197/13
f 97/247/14 69/197/13 98/248/19
f 97/247/14 98/248/19 99/249/19
f 97/247/14 99/249/19 100/250/19
f 97/247/14 100/250/19 101/251/20
f 97/247/14 101/251/20 102/252/21
f 89/236/16 70/235/14 95/253/14
f 95/253/14 90/254/16 89/236/16
f 69/238/13 83/237/17 84/255/17
f 84/255/17 98/256/19 69/238/13
f 90/254/16 95/253/14 96/257/14
f 96/257/14 91/258/16 90/254/16
f 98/256/19 84/255/17 85/259/17
f 85/259/17 99/260/19 98/256/19
f 91/258/16 96/257/14 97/261/14
f 97/261/14 92/262/16 91/258/16
f 99/260/19 85/259/17 86/263/17
f 86/263/17 100/264/19 99/260/19
f 92/262/16 97/261/14 102/265/21
f 102/265/21 93/266/16 92/262/16
f 100/264/19 86/263/17 87/267/17
f 87/267/17 101/268/20 100/264/19
f 102/252/21 101/251/20 103/269/22
f 103/269/22 104/270/23 102/252/21
f 93/266/16 102/265/21 104/271/23
f 104/271/23 94/272/16 93/266/16
f 101/268/20 87/267/17 88/273/18
f 88/273/18 103/274/22 101/268/20
f 104/270/23 103/269/22 78/275/1
f 78/275/1 77/276/2 104/270/23
f 94/272/16 104/271/23 77/277/2
f 77/277/2 76/278/7 94/272/16
f 103/274/22 88/273/18 75/279/8
f 75/279/8 78/280/1 103/274/22
